<svg xmlns="http://www.w3.org/2000/svg" width="190" height="140" viewBox="0 0 190 140" fill="none"><path d="M113.299 104.235H116.151V111.845H117.744V104.235H120.597V102.754H113.299V104.235Z" fill="black"></path><path d="M128.254 107.988C128.254 108.828 128.05 109.46 127.646 109.884C127.241 110.308 126.687 110.52 125.98 110.52C125.265 110.52 124.706 110.3 124.301 109.858C123.897 109.416 123.693 108.771 123.693 107.923V102.755H122.126V107.988C122.126 108.646 122.216 109.224 122.396 109.721C122.576 110.219 122.833 110.637 123.167 110.975C123.5 111.313 123.903 111.566 124.374 111.734C124.845 111.903 125.371 111.987 125.954 111.987C126.545 111.987 127.079 111.903 127.554 111.734C128.029 111.566 128.434 111.31 128.768 110.968C129.101 110.626 129.361 110.2 129.545 109.689C129.729 109.178 129.821 108.586 129.821 107.91V102.755H128.254V107.988Z" fill="black"></path><path d="M138.062 108.033C138.323 107.873 138.548 107.678 138.737 107.449C138.925 107.22 139.074 106.955 139.18 106.657C139.288 106.358 139.341 106.023 139.341 105.651V105.625C139.341 105.226 139.277 104.863 139.148 104.534C139.019 104.206 138.835 103.916 138.596 103.664C138.305 103.378 137.94 103.156 137.504 102.995C137.067 102.835 136.566 102.755 136.001 102.755H131.992V111.845H133.56V108.677H135.545L137.761 111.845H139.624L137.196 108.403C137.513 108.317 137.802 108.194 138.062 108.033ZM133.559 107.261V104.196H135.866C136.459 104.196 136.919 104.324 137.244 104.582C137.572 104.837 137.735 105.214 137.735 105.709V105.735C137.735 106.204 137.568 106.577 137.232 106.849C136.898 107.125 136.445 107.261 135.878 107.261H133.559Z" fill="black"></path><path d="M110.113 110.215C109.719 110.426 109.248 110.533 108.7 110.533C108.271 110.533 107.876 110.449 107.511 110.28C107.147 110.111 106.832 109.879 106.567 109.585C106.301 109.29 106.096 108.946 105.95 108.553C105.805 108.159 105.732 107.741 105.732 107.299V107.273C105.732 106.832 105.805 106.416 105.95 106.026C106.096 105.637 106.301 105.297 106.567 105.007C106.832 104.717 107.147 104.488 107.511 104.319C107.875 104.15 108.271 104.066 108.7 104.066C109.214 104.066 109.672 104.169 110.074 104.377C110.477 104.585 110.858 104.857 111.218 105.195L112.233 104.014C112.018 103.806 111.792 103.615 111.552 103.442C111.312 103.269 111.051 103.12 110.768 102.994C110.486 102.869 110.175 102.771 109.837 102.702C109.499 102.633 109.123 102.598 108.713 102.598C108.028 102.598 107.402 102.722 106.837 102.969C106.272 103.216 105.781 103.553 105.368 103.982C104.955 104.41 104.634 104.908 104.405 105.475C104.176 106.043 104.062 106.65 104.062 107.3V107.326C104.062 107.975 104.178 108.585 104.411 109.156C104.645 109.728 104.966 110.223 105.375 110.643C105.784 111.063 106.268 111.394 106.824 111.636C107.381 111.879 107.989 112 108.649 112C109.069 112 109.452 111.963 109.799 111.889C110.146 111.816 110.465 111.708 110.756 111.565C111.047 111.422 111.319 111.253 111.571 111.058C111.824 110.863 112.066 110.641 112.297 110.389L111.282 109.35C110.897 109.715 110.507 110.003 110.113 110.215Z" fill="black"></path><path d="M142.848 110.403V107.975H147.358V106.534H142.848V104.196H147.936V102.754H141.28V111.845H148V110.403H142.848Z" fill="black"></path><path d="M86.8846 104.235H89.7369V111.845H91.3299V104.235H94.1821V102.754H86.8846V104.235Z" fill="black"></path><path d="M69.8619 110.215C69.4675 110.426 68.997 110.533 68.4484 110.533C68.02 110.533 67.6242 110.449 67.2599 110.28C66.8962 110.111 66.5812 109.879 66.3156 109.585C66.0499 109.29 65.8444 108.946 65.6989 108.553C65.5534 108.159 65.4807 107.741 65.4807 107.299V107.273C65.4807 106.832 65.5534 106.416 65.6989 106.026C65.8444 105.637 66.0499 105.297 66.3156 105.007C66.5812 104.717 66.8962 104.488 67.2599 104.319C67.6242 104.15 68.02 104.066 68.4484 104.066C68.9623 104.066 69.4207 104.169 69.8232 104.377C70.2256 104.585 70.6066 104.857 70.9663 105.195L71.9814 104.014C71.7671 103.806 71.5402 103.615 71.3 103.442C71.0604 103.269 70.7988 103.12 70.5165 102.994C70.2336 102.869 69.9233 102.771 69.5849 102.702C69.2466 102.633 68.8722 102.598 68.4611 102.598C67.7757 102.598 67.1504 102.722 66.5852 102.969C66.0199 103.216 65.5294 103.553 65.1163 103.982C64.7032 104.41 64.3822 104.908 64.1527 105.475C63.9238 106.043 63.8103 106.65 63.8103 107.3V107.326C63.8103 107.975 63.9258 108.585 64.1593 109.156C64.3929 109.728 64.7139 110.223 65.123 110.643C65.5321 111.063 66.0159 111.394 66.5725 111.636C67.1291 111.879 67.737 112 68.3964 112C68.8161 112 69.1992 111.963 69.5462 111.889C69.8932 111.816 70.2122 111.708 70.5032 111.565C70.7941 111.422 71.0664 111.253 71.3187 111.058C71.5716 110.863 71.8132 110.641 72.0448 110.389L71.0297 109.35C70.6453 109.715 70.2556 110.003 69.8619 110.215Z" fill="black"></path><path d="M79.5745 106.534H75.2581V102.754H73.6905V111.845H75.2581V108.014H79.5745V111.845H81.1421V102.754H79.5745V106.534Z" fill="black"></path><path d="M97.4195 107.975H101.929V106.534H97.4195V104.196H102.507V102.754H95.8525V111.845H102.571V110.403H97.4195V107.975Z" fill="black"></path><path d="M60.9908 108.033C61.2524 107.873 61.4766 107.678 61.6655 107.449C61.8536 107.22 62.0018 106.955 62.1086 106.657C62.216 106.358 62.2694 106.023 62.2694 105.651V105.625C62.2694 105.226 62.2053 104.863 62.0765 104.534C61.9477 104.206 61.7636 103.916 61.524 103.664C61.233 103.378 60.8686 103.156 60.4315 102.995C59.9951 102.835 59.4939 102.755 58.9286 102.755H54.9205V111.845H56.4881V108.677H58.4728L60.6891 111.845H62.5517L60.1232 108.403C60.4402 108.317 60.7298 108.194 60.9908 108.033ZM56.4875 107.261V104.196H58.7938C59.3871 104.196 59.8476 104.324 60.1726 104.582C60.5003 104.837 60.6631 105.214 60.6631 105.709V105.735C60.6631 106.204 60.4963 106.577 60.1599 106.849C59.8256 107.125 59.3738 107.261 58.8065 107.261H56.4875Z" fill="black"></path><path d="M85.1122 102.754H83.5446V111.844H85.1122V102.754Z" fill="black"></path><path d="M47.9567 102.69L44 111.845H45.619L46.5439 109.65H50.7963L51.7086 111.845H53.379L49.4222 102.69H47.9567V102.69ZM47.1219 108.235L48.6634 104.599L50.2184 108.235H47.1219Z" fill="black"></path><path d="M64.8033 98.9945H134.351V98.3463H126.918V84.6716H129.543V84.0234H126.918V71.3288L131.524 72.576L131.69 71.9501L126.918 70.6577V50.6472H126.276V70.4843L114.251 67.227V45.5728L121.822 43.5222L121.656 42.8962L114.251 44.9016V34.5025H113.609V45.0756L102.367 48.1204V40.2744L106.656 41.4359L106.822 40.8099L102.367 39.6032V31.0442H101.726V39.4299L66.9068 30L66.7407 30.626L101.725 40.101V48.2945L97.1612 49.5302V42.2143L68.6853 34.5025V57.2427L64.8033 58.2943V34.5025H64.162V58.4677L60.0224 59.5887L60.1886 60.2147L64.162 59.1388V84.0241H62.4569V84.6723H64.162V98.3469H57.6487V98.9951H64.8033V98.9945ZM126.276 98.3463H123.314V84.6716H126.276V98.3463ZM114.25 67.8982L126.276 71.1548V84.0234H123.314V73.5885L114.249 71.1332V67.8982H114.25ZM102.366 48.7916L113.609 45.7468V67.053L110.238 66.1404V50.6472L102.366 52.7787V48.7916ZM113.609 67.7242V70.9592L110.238 70.0459V66.8109L113.609 67.7242ZM97.1612 50.2014L101.725 48.9656V52.9527L97.1612 54.1885V50.2014ZM97.1612 68.9329L120.991 75.3868V84.0234H97.1612V68.9329ZM97.1612 84.6716H120.991V96.6465H97.1612V84.6716ZM71.0084 37.5587L94.8381 44.0126V50.1589L71.0084 56.6127V37.5587ZM71.0084 57.2839L94.8381 50.83V54.8178L81.7614 58.3591V84.0234H71.0084V57.2839ZM71.0084 84.6716H81.7614V96.6465H71.0084V84.6716ZM64.8033 58.9641L68.6853 57.9132V84.0234H64.8033V58.9641ZM64.8033 84.6716H68.6853V98.3463H64.8033V84.6716Z" fill="black"></path></svg>