<svg xmlns="http://www.w3.org/2000/svg" width="190" height="140" viewBox="0 0 190 140" fill="none"><path d="M45.6148 102.474H50.6672L52.282 104.102V105.941L52.1495 106.074H49.9923L49.8598 105.941V104.783L49.3174 104.243H47.0277L46.4222 104.783L46.4293 110.558L47.0277 111.231H49.3174L49.9229 110.621V109.469L50.0625 109.329H52.081L52.2135 109.469V111.434L50.6681 112.998H45.6148L44.0071 111.435L44 104.039L45.6148 102.474Z" fill="black"></path><path d="M54.8429 102.474H59.9237L61.5456 104.109V111.365L59.9237 113H54.8429L53.221 111.365V104.109L54.8429 102.474ZM55.6227 104.894V110.656L56.1864 111.224H58.5108L59.1439 110.656V104.894L58.5801 104.326H56.1864L55.6227 104.894Z" fill="black"></path><path d="M64.7396 102.474C64.8508 102.474 66.0503 104.75 68.3373 109.301L68.4066 109.371H68.476V109.301L68.4689 102.614L68.5454 102.473H70.3824L70.522 102.614V112.858L70.3824 112.999H68.1203C67.698 112.363 66.4984 110.064 64.5226 106.101H64.4533V112.858L64.3137 112.999H62.546L62.3441 112.838L62.337 102.544L62.4064 102.474H64.7396Z" fill="black"></path><path d="M73.0634 102.474H78.2483L79.6612 103.898V105.463L79.5287 105.596H77.4409L77.3013 105.463V104.712L76.8353 104.243H74.4061L73.933 104.65V106.411L74.2736 106.685H78.178C78.4332 106.685 78.9276 107.138 79.6603 108.046V111.505L78.178 113H72.9931L71.5108 111.505V109.947L71.6433 109.807H73.7312L73.8708 109.947V110.761L74.3367 111.231H76.8976L77.3013 110.761V108.993L76.9669 108.656H72.8606L71.5802 107.365V103.969L73.0634 102.474Z" fill="black"></path><path d="M80.7674 102.474H88.458L88.5976 102.614V104.25L88.458 104.397H85.7789V112.859L85.633 113H83.5941L83.4483 112.859V104.397H80.7691L80.6295 104.25V102.614L80.7674 102.474Z" fill="black"></path><path d="M96.2936 102.474L97.8453 104.038V107.238L96.5719 108.593L97.9849 112.929L97.9155 112.999H95.7299C95.6187 112.999 95.1474 111.624 94.3169 108.873H91.9926V112.859L91.8467 113H89.8007L89.5989 112.817L89.5917 102.544L89.6611 102.475H96.2936V102.474ZM91.9926 107.238H94.9509L95.5147 106.669V104.746L94.9509 104.178H91.9926V107.238Z" fill="black"></path><path d="M99.1052 102.474H101.193L101.333 102.607V110.487L101.938 111.098H104.159L104.764 110.487V102.607L104.904 102.474H106.992L107.124 102.607V111.372L105.509 113H100.588L98.9736 111.372V102.607L99.1052 102.474Z" fill="black"></path><path d="M109.656 102.474H114.709L116.324 104.102V105.941L116.191 106.074H114.034L113.901 105.941V104.783L113.359 104.243H111.069L110.464 104.783L110.471 110.558L111.069 111.231H113.359L113.965 110.621V109.469L114.104 109.329H116.123L116.255 109.469V111.434L114.71 112.998H109.657L108.05 111.434L108.043 104.038L109.656 102.474Z" fill="black"></path><path d="M117.402 102.474H125.093L125.232 102.614V104.25L125.093 104.397H122.414V112.859L122.268 113H120.229L120.083 112.859V104.397H117.404L117.264 104.25V102.614L117.402 102.474Z" fill="black"></path><path d="M126.359 102.474H128.385L128.517 102.607V112.866L128.385 113H126.359L126.227 112.866V102.607L126.359 102.474Z" fill="black"></path><path d="M131.321 102.474H136.402L138.024 104.109V111.365L136.402 113H131.321L129.699 111.365V104.109L131.321 102.474ZM132.101 104.894V110.656L132.664 111.224H134.989L135.622 110.656V104.894L135.058 104.326H132.664L132.101 104.894Z" fill="black"></path><path d="M141.218 102.474C141.329 102.474 142.528 104.75 144.815 109.301L144.885 109.371H144.954V109.301L144.947 102.614L145.023 102.473H146.86L147 102.614V112.858L146.86 112.999H144.598C144.176 112.363 142.976 110.064 141.001 106.101H140.931V112.858L140.792 112.999H139.024L138.822 112.838L138.815 102.544L138.884 102.474H141.218Z" fill="black"></path><path d="M73.0963 76.3008V93.5674H74.1838V59.5014L94.3267 45.5009V66.6137L86.7863 70.6759V93.5674H87.8729V71.3322L98.3254 65.7028V93.5674H99.412V42.1487L123.662 58.7124V72.5846L112.406 76.6756V93.5674H113.492V77.4448L128.833 71.8701V29H62.1681V70.2742L73.0963 76.3008Z" fill="black"></path></svg>