<svg xmlns="http://www.w3.org/2000/svg" width="190" height="140" viewBox="0 0 190 140" fill="none"><path d="M90.0558 51.8474H101.497V62.9838L109.125 70.4092V51.8474L93.8718 37V44.4254H82.431V62.9838L90.0558 70.4092V51.8474Z" fill="black"></path><path d="M61.9007 98.9861C62.3513 98.7597 62.882 98.6464 63.4925 98.6464C64.0159 98.6464 64.4774 98.7278 64.8808 98.8905C65.2842 99.0533 65.6113 99.2832 65.8621 99.5804C66.1129 99.8775 66.2764 100.228 66.3527 100.635H67.2504C67.1886 100.083 66.9887 99.6016 66.6544 99.1842C66.32 98.7703 65.8839 98.4483 65.346 98.2149C64.8081 97.9814 64.1903 97.8646 63.4998 97.8646C62.7184 97.8646 62.0352 98.0132 61.4464 98.3139C60.8576 98.6146 60.3997 99.032 60.0726 99.5662C59.7455 100.1 59.582 100.723 59.582 101.434C59.582 102.138 59.7455 102.761 60.0726 103.295C60.3997 103.833 60.8576 104.25 61.4464 104.551C62.0352 104.851 62.722 105 63.4998 105C64.1939 105 64.8081 104.883 65.346 104.65C65.8839 104.416 66.32 104.091 66.6544 103.67C66.9887 103.249 67.185 102.768 67.2504 102.223H66.3527C66.2764 102.633 66.1129 102.987 65.8621 103.284C65.6113 103.581 65.2842 103.811 64.8808 103.974C64.4774 104.137 64.0159 104.218 63.4925 104.218C62.882 104.218 62.3513 104.101 61.9007 103.875C61.45 103.645 61.1011 103.323 60.8576 102.906C60.6105 102.488 60.4906 101.997 60.4906 101.434C60.4906 100.865 60.6141 100.369 60.8576 99.9518C61.1048 99.5344 61.45 99.2125 61.9007 98.9861Z" fill="black"></path><path d="M74.1629 98.3139C73.5632 98.0132 72.8727 97.8646 72.0841 97.8646C71.2954 97.8646 70.6013 98.0132 70.0016 98.3139C69.3983 98.6146 68.9331 99.032 68.5987 99.5662C68.2644 100.1 68.0972 100.723 68.0972 101.434C68.0972 102.138 68.2644 102.761 68.5987 103.295C68.9331 103.833 69.4019 104.25 70.0016 104.551C70.6049 104.851 71.299 105 72.0841 105C72.8727 105 73.5632 104.851 74.1629 104.551C74.7626 104.25 75.2278 103.833 75.5621 103.295C75.8965 102.757 76.0636 102.138 76.0636 101.434C76.0636 100.723 75.8965 100.1 75.5621 99.5662C75.2278 99.032 74.7589 98.6146 74.1629 98.3139ZM74.7771 102.902C74.5263 103.32 74.1702 103.642 73.7086 103.871C73.247 104.101 72.7055 104.215 72.0841 104.215C71.459 104.215 70.9174 104.098 70.4595 103.871C69.998 103.642 69.6418 103.32 69.3874 102.902C69.133 102.485 69.0058 101.993 69.0058 101.431C69.0058 100.861 69.133 100.366 69.3874 99.9483C69.6418 99.5308 70.0016 99.2089 70.4595 98.9825C70.9211 98.7561 71.4626 98.6429 72.0841 98.6429C72.7092 98.6429 73.2507 98.7561 73.7086 98.9825C74.1702 99.2089 74.5227 99.5308 74.7771 99.9483C75.0315 100.366 75.1551 100.857 75.1551 101.431C75.1551 101.997 75.0279 102.488 74.7771 102.902Z" fill="black"></path><path d="M85.2803 104.052L82.9216 97.9814H81.9403L79.578 104.077L77.3938 97.9814H76.4671L78.9893 104.88H80.105L82.431 98.9436L84.7533 104.88H85.8618L88.3913 97.9814H87.4681L85.2803 104.052Z" fill="black"></path><path d="M94.8567 98.3139C94.2571 98.0132 93.5665 97.8646 92.7779 97.8646C91.9892 97.8646 91.2951 98.0132 90.6954 98.3139C90.0921 98.6146 89.6269 99.032 89.2926 99.5662C88.9582 100.1 88.791 100.723 88.791 101.434C88.791 102.138 88.9582 102.761 89.2926 103.295C89.6269 103.833 90.0958 104.25 90.6954 104.551C91.2987 104.851 91.9929 105 92.7779 105C93.5665 105 94.2571 104.851 94.8567 104.551C95.4564 104.25 95.9216 103.833 96.2559 103.295C96.5903 102.757 96.7575 102.138 96.7575 101.434C96.7575 100.723 96.5903 100.1 96.2559 99.5662C95.9216 99.032 95.4528 98.6146 94.8567 98.3139ZM95.4709 102.902C95.2202 103.32 94.864 103.642 94.4024 103.871C93.9409 104.101 93.3994 104.215 92.7779 104.215C92.1528 104.215 91.6113 104.098 91.1534 103.871C90.6918 103.642 90.3356 103.32 90.0812 102.902C89.8268 102.485 89.6996 101.993 89.6996 101.431C89.6996 100.861 89.8268 100.366 90.0812 99.9483C90.3356 99.5308 90.6954 99.2089 91.1534 98.9825C91.6149 98.7561 92.1564 98.6429 92.7779 98.6429C93.403 98.6429 93.9445 98.7561 94.4024 98.9825C94.864 99.2089 95.2165 99.5308 95.4709 99.9483C95.7253 100.366 95.8489 100.857 95.8489 101.431C95.8489 101.997 95.7217 102.488 95.4709 102.902Z" fill="black"></path><path d="M101.755 101.982C102.234 101.982 102.652 101.898 103.012 101.731C103.372 101.561 103.652 101.328 103.859 101.027C104.062 100.727 104.168 100.38 104.168 99.9872C104.168 99.5875 104.066 99.2408 103.859 98.9401C103.655 98.6394 103.372 98.4059 103.012 98.2361C102.652 98.0663 102.234 97.9849 101.755 97.9849H98.0695V104.883H98.9562V101.986H100.552L103.197 104.883H104.302L101.649 101.986H101.755V101.982ZM98.9562 98.7384H101.726C102.191 98.7384 102.565 98.8516 102.845 99.0745C103.125 99.2974 103.267 99.6051 103.267 99.9907C103.267 100.373 103.125 100.674 102.845 100.9C102.565 101.126 102.191 101.24 101.726 101.24H98.9562V98.7384Z" fill="black"></path><path d="M112.196 97.9814H111.211L106.403 103.606V97.9814H105.516V104.88H106.29L109.081 101.622L111.28 104.88H112.309L109.667 100.939L112.196 97.9814Z" fill="black"></path><path d="M114.093 97.9814H113.206V104.88H114.093V97.9814Z" fill="black"></path><path d="M121.911 103.928L116.957 97.9814H115.805V104.88H116.666V98.9118L121.624 104.88H122.768V97.9814H121.911V103.928Z" fill="black"></path><path d="M128.402 102.251H131.018C130.956 102.534 130.847 102.796 130.688 103.033C130.437 103.408 130.084 103.702 129.634 103.917C129.183 104.133 128.656 104.239 128.053 104.239C127.435 104.239 126.897 104.126 126.435 103.9C125.974 103.673 125.618 103.348 125.367 102.923C125.116 102.499 124.989 102.004 124.989 101.434C124.989 100.857 125.112 100.362 125.363 99.9447C125.614 99.5273 125.963 99.2054 126.414 98.979C126.864 98.7526 127.395 98.6394 128.005 98.6394C128.529 98.6394 128.987 98.7172 129.379 98.8693C129.772 99.0214 130.095 99.2372 130.35 99.5167C130.6 99.7962 130.76 100.122 130.833 100.497H131.741C131.68 99.9872 131.483 99.5344 131.156 99.1417C130.829 98.7455 130.4 98.4342 129.866 98.2078C129.336 97.9814 128.721 97.8682 128.027 97.8682C127.446 97.8682 126.919 97.9531 126.439 98.1193C125.959 98.2892 125.545 98.5297 125.192 98.841C124.84 99.1523 124.567 99.5309 124.375 99.966C124.182 100.405 124.088 100.893 124.088 101.434C124.088 101.975 124.182 102.464 124.371 102.902C124.56 103.341 124.829 103.716 125.178 104.027C125.527 104.338 125.941 104.579 126.417 104.749C126.893 104.919 127.413 105 127.98 105C128.514 105 128.998 104.919 129.43 104.759C129.863 104.6 130.23 104.377 130.535 104.094C130.757 103.886 130.942 103.652 131.091 103.394L131.135 104.88H131.825V101.558H128.405V102.251H128.402Z" fill="black"></path><path d="M44.5432 90.1845L38.234 76.7628H34L42.2572 93.7433H46.6983L54.9809 76.7628H50.7942L44.5432 90.1845Z" fill="black"></path><path d="M60.8177 76.7628H56.8635V93.7433H60.8177V76.7628Z" fill="black"></path><path d="M68.3298 87.2907H71.3608L76.6124 93.7433H81.2426L75.802 87.174C76.4743 87.0678 77.0958 86.8839 77.6591 86.6221C78.6186 86.1764 79.3709 85.5608 79.916 84.7755C80.4575 83.9901 80.7301 83.0774 80.7301 82.0374C80.7301 80.9796 80.4575 80.0598 79.916 79.2745C79.3745 78.4891 78.6222 77.8736 77.6591 77.4278C76.696 76.9821 75.5803 76.7592 74.3083 76.7592H64.3757V93.7398H68.3298V87.2907ZM75.9473 80.3853C76.4671 80.778 76.7251 81.3298 76.7251 82.0374C76.7251 82.7484 76.4671 83.3003 75.9473 83.7C75.4276 84.0998 74.7262 84.3014 73.8431 84.3014H68.3298V79.7945H73.8431C74.7262 79.798 75.4276 79.9926 75.9473 80.3853Z" fill="black"></path><path d="M92.6143 93.7433V80.1589H99.545V76.7628H81.7296V80.1589H88.682V93.7433H92.6143Z" fill="black"></path><path d="M117.571 90.4746C118.284 89.3354 118.64 88.0018 118.64 86.4771V76.7628H114.686V86.2931C114.686 87.1987 114.508 87.977 114.151 88.6244C113.795 89.2718 113.275 89.7741 112.592 90.1314C111.909 90.4852 111.073 90.6621 110.081 90.6621C109.103 90.6621 108.271 90.4852 107.58 90.1314C106.89 89.7777 106.367 89.2753 106.01 88.6244C105.654 87.977 105.476 87.1987 105.476 86.2931V76.7628H101.522V86.4771C101.522 88.0018 101.882 89.3354 102.605 90.4746C103.325 91.6137 104.328 92.5016 105.607 93.1348C106.886 93.7681 108.38 94.0865 110.085 94.0865C111.789 94.0865 113.286 93.7681 114.573 93.1348C115.859 92.4981 116.859 91.6137 117.571 90.4746Z" fill="black"></path><path d="M135.085 77.4668C134.078 76.9998 132.883 76.7663 131.502 76.7663H121.987V93.7469H125.941V87.9947H131.502C132.883 87.9947 134.075 87.7577 135.085 87.2801C136.092 86.8061 136.866 86.1481 137.4 85.3096C137.934 84.4712 138.203 83.4949 138.203 82.377C138.203 81.2591 137.934 80.2792 137.4 79.4337C136.866 78.5917 136.095 77.9337 135.085 77.4668ZM133.446 84.167C132.926 84.6057 132.21 84.825 131.294 84.825H125.945V79.936H131.294C132.21 79.936 132.926 80.1518 133.446 80.5799C133.966 81.0114 134.224 81.6093 134.224 82.3805C134.224 83.134 133.966 83.7319 133.446 84.167Z" fill="black"></path><path d="M156.379 86.0702C155.968 85.4512 155.285 84.9559 154.332 84.588C153.38 84.2201 152.094 83.9512 150.484 83.7849L146.831 83.3533C145.715 83.2189 144.934 83.0102 144.494 82.7307C144.051 82.4513 143.833 82.055 143.833 81.5421C143.833 80.877 144.204 80.3641 144.949 80.0032C145.694 79.6424 146.693 79.4584 147.951 79.4584C148.848 79.4584 149.633 79.561 150.298 79.7627C150.963 79.9678 151.487 80.2544 151.868 80.6223C152.246 80.9938 152.475 81.4253 152.555 81.9241H156.557C156.495 80.824 156.091 79.8617 155.346 79.0375C154.601 78.2167 153.602 77.5729 152.344 77.113C151.087 76.6531 149.655 76.4232 148.041 76.4232C146.381 76.4232 144.941 76.6319 143.717 77.0458C142.492 77.4597 141.543 78.0611 140.867 78.8464C140.191 79.6318 139.857 80.5834 139.857 81.6977C139.857 83.1163 140.366 84.2236 141.38 85.016C142.394 85.8084 144.036 86.3249 146.301 86.5655L149.811 86.9511C151.051 87.0855 151.901 87.3013 152.359 87.5949C152.817 87.8886 153.046 88.3095 153.046 88.8508C153.046 89.5442 152.646 90.0854 151.847 90.471C151.047 90.8566 149.96 91.0477 148.579 91.0477C147.634 91.0477 146.798 90.9309 146.079 90.6974C145.359 90.4639 144.785 90.1314 144.356 89.6998C143.931 89.2682 143.669 88.7694 143.578 88.1928H139.577C139.639 89.3708 140.05 90.4003 140.809 91.2847C141.569 92.1691 142.608 92.8554 143.927 93.3436C145.247 93.8353 146.773 94.0794 148.51 94.0794C150.215 94.0794 151.705 93.8459 152.977 93.3789C154.249 92.912 155.237 92.2504 155.942 91.3979C156.647 90.5453 157 89.5512 157 88.4192C156.996 87.4747 156.789 86.6893 156.379 86.0702Z" fill="black"></path></svg>