<svg xmlns="http://www.w3.org/2000/svg" width="190" height="140" viewBox="0 0 190 140" fill="none"><path d="M144.559 72.2017C145.907 72.2017 146.807 71.633 147.615 70.6973L148.856 72.066H150.47V71.4678L148.563 69.3763L149.589 67.6554L148.241 66.9655L147.526 68.1801L145.759 66.3491C146.785 65.795 147.73 65.0758 147.73 63.6741C147.73 62.2136 146.456 61.2156 145.093 61.2156C143.604 61.2156 142.207 62.1696 142.207 63.8135C142.207 64.6905 142.656 65.395 143.2 66.0408C142.115 66.716 141.167 67.4719 141.167 68.991C141.163 70.9578 142.667 72.2017 144.559 72.2017ZM145.041 62.6576C145.678 62.6576 146.17 63.1016 146.17 63.7034C146.17 64.4887 145.333 65.0244 144.667 65.395C144.248 64.9327 143.815 64.2905 143.815 63.7805C143.815 63.1493 144.37 62.6576 145.041 62.6576ZM144.233 67.0829L146.637 69.5708C146.126 70.2019 145.489 70.6936 144.681 70.6936C143.626 70.6936 142.726 70.0038 142.726 68.958C142.73 68.1434 143.519 67.5159 144.233 67.0829Z" fill="black"></path><path d="M65.2259 63.0576H73.7593V71.9008H76.9111V51.4073H73.7593V59.99H65.2259V51.4073H62.1V71.9008H65.2259V63.0576Z" fill="black"></path><path d="M90.2815 72.2824C93.1556 72.2824 95.8444 71.167 97.8593 69.1451C99.8593 67.0976 100.963 64.4336 100.963 61.6412C100.963 58.8488 99.8593 56.1848 97.8556 54.1373C95.8148 52.1118 93.1259 51 90.2815 51C87.4667 51 84.7185 52.1412 82.737 54.1373C80.7333 56.1848 79.6296 58.8488 79.6296 61.6412C79.6296 64.4336 80.7333 67.0976 82.737 69.1451C84.7185 71.167 87.3963 72.2824 90.2815 72.2824ZM85.0222 56.372C86.4333 54.9409 88.3037 54.1557 90.2815 54.1557C92.2667 54.1557 94.1556 54.9446 95.6 56.372C97.0037 57.7664 97.7778 59.6341 97.7778 61.6412C97.7778 63.6447 97.0037 65.5161 95.6 66.9105C94.1556 68.3379 92.2667 69.1268 90.2815 69.1268C88.3037 69.1268 86.437 68.3379 85.0222 66.9105C83.6 65.5308 82.8148 63.6594 82.8148 61.6412C82.8148 59.6231 83.6 57.7553 85.0222 56.372Z" fill="black"></path><path d="M106.926 57.7407L112.152 65.439L112.174 65.4721H113.933L119.189 57.7407V71.9008H122.285V51.3779H119.811L113.07 61.2082L106.352 51.411L106.33 51.3779H103.796V71.9008H106.926V57.7407Z" fill="black"></path><path d="M128.83 63.2007H138.141V60.0781H128.83V54.5043H138.344V51.4073H125.674V71.9008H138.374V68.8075H128.83V63.2007Z" fill="black"></path><path d="M69.3926 85.3345H75.4889C74.6074 87.2205 72.7704 88.3397 70.5148 88.3397C67.3037 88.3397 64.8815 85.8005 64.8815 82.432C64.8815 79.1038 67.3037 76.594 70.5148 76.594C72.6037 76.594 75.0741 77.5187 75.7333 80.1056L75.7667 80.2414H78.7148L78.6704 80.0249C77.7481 75.4565 73.7 73.8383 70.5148 73.8383C65.7185 73.8383 62.1 77.5297 62.1 82.432C62.1 87.3967 65.637 91 70.5148 91C73.5518 91 76.5963 89.1103 77.9556 86.4867V86.5454L78.3074 85.7087C78.5556 85.1216 78.6778 84.1456 78.7926 82.7696L78.8074 82.5714H69.3926V85.3345Z" fill="black"></path><path d="M85.5407 73.886L78.8037 90.7248H81.7556L83.3481 86.6114H89.7556L91.3259 90.7248H94.2556L87.5222 73.886H85.5407ZM84.3593 84.0428L86.5556 78.3223L88.7519 84.0428H84.3593Z" fill="black"></path><path d="M128.696 83.7786H136.13V81.0413H128.696V76.8325H136.296V74.1208H125.937V90.7248H136.319V88.0168H128.696V83.7786Z" fill="black"></path><path d="M148.289 74.0951V85.151L140.622 74.1722L140.57 74.0951H138.459V90.7248H141.196V79.7643L148.789 90.6477L148.841 90.7248H151V74.0951H148.289Z" fill="black"></path><path d="M115.496 74.1208H109.422V85.9252H112.159V76.8325H115.493C119.296 76.8325 121.03 79.7386 121.03 82.4356C121.03 85.1253 119.296 88.0168 115.493 88.0168L106.033 88.0094L103.1 84.5492C105.593 83.9878 107.185 82.021 107.185 79.4561C107.185 76.8729 105.456 74.0915 101.656 74.0915H95.4926V90.7211H98.2074V76.8325H101.659C103.578 76.8325 104.452 78.1975 104.452 79.4598C104.452 80.7367 103.578 82.1127 101.659 82.1127H98.7074V83.4741L104.73 90.6587L104.785 90.7248H115.5C119.474 90.7248 123.752 88.1305 123.752 82.432C123.748 76.7224 119.47 74.1208 115.496 74.1208Z" fill="black"></path><path d="M57.3704 51.6275L40.9556 57.8397C40.4296 58.0379 40 58.658 40 59.2158V82.9861C40 83.5438 40.4296 84.1639 40.9556 84.3657L57.3704 90.578C57.8963 90.7762 58.3259 90.4826 58.3259 89.9249V52.2806C58.3296 51.7192 57.8963 51.4256 57.3704 51.6275ZM54.2259 58.5699V71.4532H49.4667V59.1607L53.2556 57.8801C53.7889 57.7003 54.2259 58.0122 54.2259 58.5699ZM44.8 60.7386L48.6222 59.4469V71.4495H43.8296V62.0816C43.8296 61.5238 44.2667 60.9184 44.8 60.7386ZM43.8296 80.1203V72.2531H48.6222V82.4723C48.6222 82.5751 48.6296 82.6705 48.6407 82.7622L44.7963 81.4633C44.2667 81.2835 43.8296 80.678 43.8296 80.1203ZM53.2556 84.3217L49.3963 83.0191C49.4407 82.8613 49.463 82.6742 49.463 82.4723V72.2531H54.2259V83.6355C54.2259 84.1896 53.7889 84.5015 53.2556 84.3217Z" fill="black"></path></svg>