<svg xmlns="http://www.w3.org/2000/svg" width="190" height="140" viewBox="0 0 190 140" fill="none"><path d="M67.1607 72.7225H63.0454V76.7678H67.1607V72.7225Z" fill="black"></path><path d="M61.3718 72.7225H57.2565V76.7678H61.3718V72.7225Z" fill="black"></path><path d="M61.3718 78.413H57.2565V82.4584H61.3718V78.413Z" fill="black"></path><path d="M67.1607 78.413H63.0454V82.4584H67.1607V78.413Z" fill="black"></path><path d="M79.8006 63.0969H79.3905L71.9396 62.649L79.2521 62.2096C78.5459 58.3563 76.5183 54.9557 73.649 52.4718L71.2305 55.2952L73.055 51.9792C71.3379 50.6212 69.3528 49.578 67.1878 48.94L64.8563 58.6644L66.2368 48.6889C66.1991 48.6803 66.1623 48.6708 66.1246 48.6623C65.5877 47.6733 64.5274 47 63.3066 47H61.1154C59.8955 47 58.8353 47.6723 58.2964 48.6613C58.2577 48.6699 58.219 48.6794 58.1803 48.6889L59.5608 58.6644L57.2294 48.94C55.0653 49.578 53.0793 50.6212 51.3622 51.9792L53.1867 55.2952L50.7682 52.4718C47.8989 54.9557 45.8712 58.3563 45.165 62.2096L52.4776 62.649L45.0267 63.0969H44.6165C43.7236 63.0969 43 63.8091 43 64.6869V67.1061C43 67.9838 43.7236 68.6951 44.6165 68.6951H44.6726V86.0473L62.2086 96L79.7445 86.0473V68.6951H79.8006C80.6935 68.6951 81.4172 67.9838 81.4172 67.1061V64.6869C81.4172 63.8091 80.6935 63.0969 79.8006 63.0969ZM62.2086 91.9736L48.2201 84.035V68.6961H76.1971V84.035L62.2086 91.9736Z" fill="black"></path><path d="M90.3607 90.3561C90.2388 90.3561 90.1392 90.3504 90.0628 90.3399C89.9863 90.3294 89.9254 90.3057 89.879 90.2695C89.8335 90.2334 89.8016 90.183 89.7841 90.1183C89.7667 90.0537 89.758 89.9681 89.758 89.8606V88.0643C89.758 87.9568 89.7667 87.8712 89.7841 87.8065C89.8016 87.7419 89.8335 87.6924 89.879 87.6582C89.9244 87.624 89.9863 87.6002 90.0628 87.5878C90.1392 87.5745 90.2388 87.5688 90.3607 87.5688H91.6841C91.7799 87.5688 91.983 87.6591 92.2936 87.8389V86.9564H89.9941C89.7619 86.9564 89.5762 86.9678 89.4378 86.9916C89.2995 87.0154 89.1931 87.0581 89.1205 87.12C89.048 87.1827 89.0015 87.2664 88.9822 87.371C88.9628 87.4766 88.9522 87.6078 88.9522 87.7666V90.1554C88.9522 90.319 88.9619 90.4512 88.9822 90.5548C89.0025 90.6575 89.048 90.7402 89.1205 90.803C89.1931 90.8658 89.2985 90.9086 89.4378 90.9314C89.5762 90.9552 89.7619 90.9666 89.9941 90.9666H92.3526V90.0461C92.0953 90.2524 91.8892 90.3551 91.7373 90.3551H90.3607V90.3561Z" fill="black"></path><path d="M97.6258 87.0715V87.0781C97.5078 87.0011 97.2457 86.9621 96.8394 86.9621H95.1754C94.7691 86.9621 94.507 87.0011 94.389 87.0781V87.0715C94.2226 87.1704 94.1403 87.4043 94.1403 87.7733V90.1554C94.1403 90.5244 94.2235 90.7583 94.389 90.8572V90.8506C94.507 90.9276 94.7691 90.9666 95.1754 90.9666H96.8394C97.2457 90.9666 97.5078 90.9276 97.6258 90.8506V90.8572C97.7922 90.7583 97.8745 90.5244 97.8745 90.1554V87.7733C97.8745 87.4043 97.7913 87.1704 97.6258 87.0715ZM97.0822 89.8597C97.0822 89.9671 97.0735 90.0527 97.0561 90.1174C97.0386 90.182 97.0067 90.2324 96.9612 90.2686C96.9158 90.3047 96.8539 90.3285 96.7774 90.3389C96.701 90.3494 96.6014 90.3551 96.4795 90.3551H95.5363C95.4144 90.3551 95.3147 90.3494 95.2383 90.3389C95.1619 90.3285 95.1019 90.3057 95.0584 90.2714C95.0149 90.2372 94.9849 90.1877 94.9703 90.1231C94.9549 90.0584 94.9471 89.9709 94.9471 89.8587V88.0681C94.9471 87.9606 94.9558 87.8741 94.9733 87.8075C94.9907 87.7409 95.0216 87.6905 95.0652 87.6563C95.1087 87.6221 95.1687 87.5992 95.2451 87.5888C95.3215 87.5783 95.4183 87.5726 95.5363 87.5726H96.4795C96.6014 87.5726 96.701 87.5793 96.7774 87.5916C96.8539 87.6049 96.9148 87.6278 96.9612 87.663C97.0067 87.6972 97.0386 87.7466 97.0561 87.8113C97.0735 87.876 97.0822 87.9616 97.0822 88.069V89.8597Z" fill="black"></path><path d="M103.41 86.9564H102.368C102.49 87.2483 102.552 87.5079 102.552 87.7352V89.9443L100.436 86.9564H99.6177C99.7357 87.2521 99.7947 87.5127 99.7947 87.7352V90.24C99.7947 90.3389 99.7793 90.4483 99.7493 90.5681C99.7183 90.6879 99.6748 90.8211 99.6187 90.9675H100.634C100.52 90.6413 100.464 90.3989 100.464 90.24V88.321L102.364 90.9675H103.406C103.284 90.6623 103.222 90.3836 103.222 90.1307V87.7352C103.219 87.5251 103.283 87.2655 103.41 86.9564Z" fill="black"></path><path d="M107.799 88.6558H106.496C106.382 88.6558 106.287 88.6519 106.211 88.6424C106.134 88.6339 106.073 88.6139 106.027 88.5816C105.981 88.5492 105.948 88.4998 105.928 88.4332C105.909 88.3667 105.899 88.2754 105.899 88.1594C105.899 88.0262 105.905 87.9207 105.915 87.8436C105.926 87.7666 105.952 87.7076 105.994 87.6668C106.035 87.6259 106.095 87.6002 106.175 87.5897C106.254 87.5793 106.36 87.5736 106.497 87.5736H107.987C108.096 87.5736 108.28 87.6763 108.538 87.8826V86.9621H106.13C105.898 86.9621 105.713 86.9735 105.576 86.9973C105.439 87.0211 105.333 87.0638 105.261 87.1257C105.188 87.1875 105.142 87.2721 105.123 87.3767C105.104 87.4823 105.094 87.6135 105.094 87.7723V88.5901C105.094 88.7062 105.122 88.807 105.179 88.8925C105.236 88.9781 105.31 89.0485 105.402 89.1017C105.494 89.155 105.598 89.1959 105.716 89.2244C105.834 89.252 105.954 89.2663 106.076 89.2663H107.445C107.602 89.2663 107.708 89.3014 107.762 89.3728C107.816 89.4431 107.844 89.5734 107.844 89.7627C107.844 89.9006 107.838 90.008 107.825 90.0879C107.812 90.1678 107.784 90.2267 107.743 90.2648C107.701 90.3038 107.642 90.3285 107.566 90.3389C107.489 90.3494 107.386 90.3551 107.254 90.3551H105.617C105.521 90.3551 105.346 90.2524 105.092 90.0461V90.9666H107.612C107.836 90.9666 108.016 90.9561 108.154 90.9342C108.291 90.9124 108.397 90.8724 108.469 90.8116C108.542 90.7517 108.589 90.6689 108.614 90.5634C108.638 90.4578 108.649 90.3218 108.649 90.1545V89.465C108.649 89.2159 108.577 89.019 108.432 88.8726C108.287 88.729 108.076 88.6558 107.799 88.6558Z" fill="black"></path><path d="M110.183 87.9092C110.41 87.6858 110.565 87.5745 110.648 87.5745H111.316V90.3627C111.316 90.5434 111.251 90.745 111.12 90.9685H112.338C112.194 90.7364 112.122 90.5348 112.122 90.3627V87.5745H112.797C112.945 87.5745 113.133 87.6801 113.36 87.8902V86.963H110.183V87.9092Z" fill="black"></path><path d="M118.554 89.6923C118.554 89.5896 118.536 89.4973 118.498 89.4156C118.462 89.3338 118.407 89.2587 118.338 89.1902C118.482 89.0998 118.553 88.9306 118.553 88.6814V87.7799C118.553 87.6211 118.543 87.4889 118.521 87.3843C118.498 87.2788 118.453 87.1951 118.383 87.1333C118.314 87.0715 118.209 87.0277 118.072 87.0049C117.934 86.9811 117.752 86.9697 117.524 86.9697H114.879C115.001 87.2227 115.063 87.4442 115.063 87.6325V90.3304C115.063 90.4464 115.006 90.6585 114.893 90.9675H116.061C115.933 90.6927 115.869 90.4806 115.869 90.3304V89.4935H117.161C117.278 89.4935 117.374 89.4992 117.449 89.5097C117.522 89.5202 117.582 89.543 117.629 89.5772C117.674 89.6115 117.706 89.6619 117.723 89.7284C117.741 89.795 117.75 89.8815 117.75 89.989V90.3304C117.75 90.5025 117.69 90.7146 117.571 90.9675H118.738C118.616 90.7013 118.554 90.4892 118.554 90.3304V89.6923ZM117.749 88.3857C117.749 88.5017 117.74 88.592 117.722 88.6558C117.705 88.7204 117.673 88.7699 117.628 88.8041C117.582 88.8383 117.522 88.8602 117.448 88.8688C117.374 88.8773 117.278 88.8821 117.16 88.8821H115.868V87.5812H117.16C117.274 87.5812 117.368 87.5859 117.445 87.5945C117.521 87.603 117.582 87.6249 117.628 87.6591C117.673 87.6934 117.705 87.7428 117.722 87.8075C117.74 87.8722 117.749 87.9625 117.749 88.0776V88.3857Z" fill="black"></path><path d="M123.251 87.6192V89.8597C123.251 89.9709 123.242 90.0594 123.225 90.124C123.208 90.1887 123.177 90.2381 123.133 90.2724C123.09 90.3066 123.03 90.3294 122.953 90.3399C122.877 90.3504 122.78 90.3561 122.662 90.3561H121.719C121.601 90.3561 121.504 90.3523 121.428 90.3428C121.351 90.3342 121.29 90.3123 121.244 90.2781C121.198 90.2439 121.166 90.1935 121.149 90.1269C121.132 90.0603 121.123 89.9709 121.123 89.8597V87.6192C121.123 87.4604 121.185 87.2417 121.308 86.9621H120.14C120.197 87.1076 120.241 87.236 120.271 87.3453C120.301 87.4547 120.316 87.546 120.316 87.6192V90.1564C120.316 90.5253 120.399 90.7593 120.566 90.8582V90.8515C120.684 90.9285 120.946 90.9675 121.353 90.9675H123.027C123.25 90.9675 123.429 90.9552 123.565 90.9323C123.7 90.9086 123.805 90.8667 123.876 90.8068C123.949 90.7469 123.996 90.6642 124.02 90.5586C124.044 90.4531 124.056 90.319 124.056 90.1564V87.6192C124.056 87.4043 124.131 87.1856 124.279 86.9621H123.071C123.192 87.2284 123.251 87.4471 123.251 87.6192Z" fill="black"></path><path d="M127.365 90.3561C127.244 90.3561 127.144 90.3504 127.068 90.3399C126.991 90.3294 126.93 90.3057 126.884 90.2695C126.838 90.2334 126.806 90.183 126.789 90.1183C126.771 90.0537 126.763 89.9681 126.763 89.8606V88.0643C126.763 87.9568 126.771 87.8712 126.789 87.8065C126.806 87.7419 126.838 87.6924 126.884 87.6582C126.929 87.624 126.991 87.6002 127.068 87.5878C127.144 87.5745 127.244 87.5688 127.365 87.5688H128.689C128.785 87.5688 128.988 87.6591 129.298 87.8389V86.9564H126.999C126.767 86.9564 126.581 86.9678 126.443 86.9916C126.304 87.0154 126.198 87.0581 126.125 87.12C126.053 87.1827 126.006 87.2664 125.987 87.371C125.968 87.4766 125.957 87.6078 125.957 87.7666V90.1554C125.957 90.319 125.967 90.4512 125.987 90.5548C126.007 90.6575 126.053 90.7402 126.125 90.803C126.198 90.8658 126.303 90.9086 126.443 90.9314C126.581 90.9552 126.767 90.9666 126.999 90.9666H129.357V90.0461C129.1 90.2524 128.894 90.3551 128.742 90.3551H127.365V90.3561Z" fill="black"></path><path d="M130.935 87.9092C131.162 87.6858 131.317 87.5745 131.4 87.5745H132.069V90.3627C132.069 90.5434 132.003 90.745 131.873 90.9685H133.091C132.947 90.7364 132.876 90.5348 132.876 90.3627V87.5745H133.55C133.698 87.5745 133.887 87.6801 134.113 87.8902V86.963H130.936V87.9092H130.935Z" fill="black"></path><path d="M136.562 87.6259C136.562 87.4623 136.623 87.2417 136.746 86.963H135.56C135.691 87.2074 135.757 87.429 135.757 87.6259V90.3437C135.757 90.5111 135.689 90.7193 135.554 90.9685H136.771C136.631 90.7279 136.562 90.5196 136.562 90.3437V87.6259H136.562Z" fill="black"></path><path d="M141.914 87.0715V87.0781C141.796 87.0011 141.534 86.9621 141.128 86.9621H139.464C139.057 86.9621 138.795 87.0011 138.677 87.0781V87.0715C138.511 87.1704 138.429 87.4043 138.429 87.7733V90.1554C138.429 90.5244 138.512 90.7583 138.677 90.8572V90.8506C138.795 90.9276 139.057 90.9666 139.464 90.9666H141.128C141.534 90.9666 141.796 90.9276 141.914 90.8506V90.8572C142.081 90.7583 142.163 90.5244 142.163 90.1554V87.7733C142.164 87.4043 142.081 87.1704 141.914 87.0715ZM141.37 89.8597C141.37 89.9671 141.362 90.0527 141.344 90.1174C141.327 90.182 141.295 90.2324 141.25 90.2686C141.204 90.3047 141.142 90.3285 141.066 90.3389C140.989 90.3494 140.89 90.3551 140.768 90.3551H139.825C139.703 90.3551 139.603 90.3494 139.527 90.3389C139.45 90.3285 139.39 90.3057 139.347 90.2714C139.303 90.2372 139.273 90.1877 139.259 90.1231C139.243 90.0584 139.235 89.9709 139.235 89.8587V88.0681C139.235 87.9606 139.244 87.8741 139.262 87.8075C139.279 87.7409 139.31 87.6905 139.353 87.6563C139.397 87.6221 139.457 87.5992 139.533 87.5888C139.61 87.5783 139.707 87.5726 139.825 87.5726H140.768C140.89 87.5726 140.989 87.5793 141.066 87.5916C141.142 87.6049 141.203 87.6278 141.25 87.663C141.295 87.6972 141.327 87.7466 141.344 87.8113C141.362 87.876 141.37 87.9616 141.37 88.069V89.8597Z" fill="black"></path><path d="M147.698 86.9564H146.656C146.778 87.2483 146.84 87.5079 146.84 87.7352V89.9443L144.724 86.9564H143.906C144.024 87.2521 144.083 87.5127 144.083 87.7352V90.24C144.083 90.3389 144.068 90.4483 144.038 90.5681C144.007 90.6879 143.963 90.8211 143.907 90.9675H144.923C144.809 90.6413 144.752 90.3989 144.752 90.24V88.321L146.652 90.9675H147.694C147.572 90.6623 147.51 90.3836 147.51 90.1307V87.7352C147.509 87.5251 147.571 87.2655 147.698 86.9564Z" fill="black"></path><path d="M96.4843 57.2247H91.7605V52.1723H88.8854V65.2831H91.7605V60.0709H96.4843V65.2831H99.3585V52.1723H96.4843V57.2247Z" fill="black"></path><path d="M110.449 65.4429C112.392 65.4429 114.004 64.8076 115.284 63.5353C116.564 62.2638 117.204 60.6662 117.204 58.7424C117.204 56.8053 116.558 55.203 115.263 53.9344C113.97 52.6658 112.334 52.0325 110.357 52.0325C108.569 52.0325 107.023 52.663 105.72 53.9249C104.416 55.1868 103.765 56.7854 103.765 58.7225C103.765 60.6729 104.393 62.2809 105.649 63.5457C106.905 64.8105 108.505 65.4429 110.449 65.4429ZM107.787 55.7868C108.471 55.008 109.372 54.6286 110.489 54.6486C111.607 54.6685 112.502 55.048 113.176 55.7868C113.85 56.5257 114.187 57.5043 114.187 58.7225C114.187 59.9606 113.843 60.9572 113.155 61.7132C112.468 62.4692 111.566 62.8468 110.449 62.8468C109.385 62.8468 108.505 62.4645 107.808 61.698C107.11 60.9325 106.761 59.9673 106.761 58.8023C106.762 57.5708 107.103 56.5657 107.787 55.7868Z" fill="black"></path><path d="M129.214 65.2831L132.149 56.0569L133.327 65.2831H136.065L134.348 52.1723H131.053L128.553 60.031L126.055 52.1723H122.639L121.001 65.2831H123.785L124.897 55.977L127.909 65.2831H129.214Z" fill="black"></path><path d="M147.765 62.687H143.133V59.9711H147.765V57.4149H143.133V54.7684H147.765V52.1723H140.259V65.2831H147.765V62.687Z" fill="black"></path><path d="M96.3402 82.2387C97.0067 81.5036 97.3395 80.3539 97.3395 78.7886C97.3395 77.8177 97.1431 77.036 96.7494 76.4455C96.3557 75.8549 95.8081 75.5107 95.1068 75.4156C95.7239 75.3072 96.1873 74.9838 96.4959 74.4475C96.8045 73.9112 96.9593 73.1532 96.9593 72.1757C96.9593 70.9556 96.6459 70.0512 96.018 69.4635C95.3902 68.8758 94.4334 68.582 93.1468 68.582H88.6513V83.3418H93.2242C94.6347 83.3408 95.6736 82.9738 96.3402 82.2387ZM92.2297 70.5837C92.9775 70.5837 93.4864 70.7169 93.7553 70.9813C94.0252 71.2466 94.1597 71.7401 94.1597 72.4619C94.1597 73.2674 94.0262 73.8199 93.7601 74.1204C93.4931 74.4209 93.0094 74.5711 92.3071 74.5711H91.3707V70.5837H92.2297ZM94.0436 80.72C93.7514 81.0681 93.2445 81.2421 92.5228 81.2421H91.3726V76.5453H92.2113C93.0888 76.5453 93.6866 76.7146 94.0049 77.0531C94.3232 77.3917 94.4828 78.0088 94.4828 78.9027C94.4818 79.7662 94.3357 80.371 94.0436 80.72Z" fill="black"></path><path d="M111.176 82.1426C111.442 81.7974 111.633 81.3971 111.747 80.9397C111.86 80.4832 111.917 79.7595 111.917 78.7686V68.581H109.158V78.4919C109.158 79.6483 109.02 80.4309 108.744 80.8398C108.467 81.2487 107.972 81.4532 107.257 81.4532C106.536 81.4532 106.033 81.2506 105.751 80.8446C105.469 80.4385 105.327 79.6673 105.327 78.53V68.581H102.529V78.7696C102.529 80.5907 102.881 81.8669 103.587 82.5991C104.292 83.3304 105.502 83.6965 107.219 83.6965C108.129 83.6965 108.915 83.5672 109.578 83.3085C110.241 83.0499 110.774 82.6609 111.176 82.1426Z" fill="black"></path><path d="M120.246 68.581H117.448V83.3408H120.246V68.581Z" fill="black"></path><path d="M133.645 80.8303H128.594V68.581H125.796V83.3408H133.645V80.8303Z" fill="black"></path><path d="M147.673 71.471C147.455 70.7007 147.083 70.0636 146.557 69.5586C146.205 69.2134 145.759 68.9643 145.216 68.8112C144.673 68.6581 143.944 68.581 143.027 68.581H138.532V83.3408H142.383C143.898 83.3408 144.962 83.221 145.577 82.9814C146.191 82.7417 146.67 82.3186 147.015 81.7119C147.372 81.1051 147.627 80.3682 147.776 79.5028C147.926 78.6374 148 77.1558 148 75.0599C147.999 73.4366 147.891 72.2403 147.673 71.471ZM144.996 78.994C144.886 79.6616 144.7 80.1875 144.44 80.5707C144.29 80.7875 144.089 80.9416 143.835 81.031C143.582 81.1204 143.14 81.1651 142.509 81.1651H141.271V70.7369H142.47C143.016 70.7369 143.417 70.7701 143.675 70.8377C143.931 70.9052 144.141 71.0212 144.304 71.1876C144.616 71.5195 144.837 72.0121 144.966 72.6635C145.096 73.3149 145.162 74.3572 145.162 75.7883C145.162 77.2585 145.107 78.3264 144.996 78.994Z" fill="black"></path></svg>