<svg xmlns="http://www.w3.org/2000/svg" width="190" height="140" viewBox="0 0 190 140" fill="none"><path d="M119.967 60.5113C129.241 62.6393 138.291 65.9917 146.873 70.5685C147.835 71.0803 149 70.4001 149 69.3215V69.2891C149 68.7741 148.721 68.2979 148.265 68.0485C145.346 66.4355 142.369 64.9682 139.349 63.6434C138.827 63.4167 138.492 62.9082 138.492 62.3478V51.2962C138.492 50.7261 138.147 50.2079 137.615 49.9876C137.139 49.79 136.663 49.5957 136.187 49.4046C136.023 49.3398 135.856 49.2718 135.691 49.207C135.547 49.1487 135.403 49.0904 135.258 49.0321C135.258 49.0353 135.258 49.0353 135.258 49.0386C130.052 47.0045 124.724 45.3849 119.32 44.18C118.664 44.0343 118.191 43.4609 118.191 42.7937V30.521C118.191 29.844 117.705 29.2642 117.032 29.1282C116.865 29.0958 116.694 29.0602 116.526 29.0278C115.637 28.8529 114.806 29.5266 114.806 30.4238C114.806 33.4976 114.806 38.5117 114.806 41.5855C114.806 42.4601 114.012 43.1306 113.139 42.988C107.866 42.1297 102.545 41.66 97.2169 41.5791C97.2169 41.5758 97.2169 41.5726 97.2169 41.5726C96.6457 41.5629 96.0712 41.5596 95.5 41.5596C94.9288 41.5596 94.3543 41.5629 93.7831 41.5726C93.7831 41.5758 93.7831 41.5791 93.7831 41.5791C88.4551 41.6633 83.1336 42.1297 77.8614 42.988C76.9882 43.1306 76.1938 42.4601 76.1938 41.5855V37.5465C76.1938 36.6525 75.3632 35.9788 74.4736 36.1504C74.3029 36.1828 74.1355 36.2184 73.968 36.2508C73.2951 36.3869 72.8092 36.9667 72.8092 37.6436V42.7937C72.8092 43.4609 72.3398 44.031 71.6799 44.18C66.2797 45.3849 60.9484 47.0045 55.7419 49.0386C55.7419 49.0353 55.7419 49.0353 55.7419 49.0321C55.5974 49.0872 55.453 49.1487 55.3085 49.207C55.1411 49.2718 54.977 49.3398 54.8128 49.4046C54.3368 49.5957 53.8608 49.79 53.3848 49.9876C52.853 50.2079 52.5083 50.7261 52.5083 51.2962V62.3478C52.5083 62.9114 52.1702 63.4167 51.6515 63.6434C48.628 64.9682 45.6538 66.4355 42.7354 68.0485C42.279 68.3012 42 68.7773 42 69.2923C42 69.302 42 69.315 42 69.3247C42 70.4033 43.1654 71.0835 44.1273 70.5718C52.7085 65.9917 61.7593 62.6393 71.0332 60.5145C71.9393 60.3072 72.8059 60.9809 72.8059 61.8976V68.6218C72.8059 69.2858 72.3365 69.8592 71.6799 70.0049C61.6772 72.2366 51.9239 75.8903 42.7321 80.9658C42.279 81.212 42 81.6881 42 82.2032C42 82.2161 42 82.2258 42 82.2388C42 83.3174 43.1654 83.9976 44.1273 83.4858C46.2151 82.3716 48.3293 81.3319 50.4697 80.3634C51.4217 79.9326 52.5083 80.6225 52.5083 81.6558V90.236C52.5083 91.2466 53.5489 91.93 54.4944 91.5478C54.5994 91.5057 54.7045 91.4636 54.8095 91.4215C54.9737 91.3535 55.1411 91.2887 55.3052 91.2239C81.0852 81.0209 109.908 81.0209 135.688 91.2239C135.852 91.2887 136.02 91.3567 136.184 91.4215C136.289 91.4636 136.394 91.5057 136.499 91.5478C137.448 91.93 138.485 91.2466 138.485 90.236V81.6558C138.485 80.6225 139.572 79.9293 140.524 80.3634C142.664 81.3319 144.778 82.3716 146.866 83.4858C147.828 83.9976 148.993 83.3174 148.993 82.2388V82.2032C148.993 81.6914 148.714 81.2152 148.261 80.9626C139.073 75.8838 129.316 72.2301 119.314 70.0017C118.657 69.8559 118.188 69.2826 118.188 68.6186V61.8943C118.191 60.9745 119.061 60.304 119.967 60.5113ZM57.682 61.2141C56.7431 61.5607 55.7451 60.874 55.7451 59.8829V53.2914C55.7451 52.7052 56.1095 52.174 56.6643 51.9634C68.1476 47.594 80.2054 45.2359 92.3124 44.8829C93.12 44.8602 93.7864 45.5048 93.7864 46.3048V53.0906C93.7864 53.8615 93.1626 54.4867 92.3813 54.5093C80.6059 54.8429 68.8764 57.0811 57.682 61.2141ZM93.7798 78.922C93.7798 79.6929 93.1561 80.318 92.3748 80.3407C80.6026 80.6776 68.8764 82.9093 57.6787 87.0423C56.7398 87.3889 55.7419 86.7022 55.7419 85.711V79.1099C55.7419 78.5236 56.1062 77.9924 56.661 77.7819C68.1443 73.4124 80.2021 71.0511 92.3091 70.6981C93.1167 70.6754 93.7831 71.32 93.7831 72.12V78.922H93.7798ZM77.8582 68.8065C76.9849 68.949 76.1938 68.2785 76.1938 67.404V60.6506C76.1938 59.9606 76.696 59.3647 77.3854 59.248C89.3743 57.2366 101.626 57.2366 113.611 59.248C114.301 59.3647 114.803 59.9606 114.803 60.6506C114.803 62.9017 114.803 65.1528 114.803 67.404C114.803 68.2785 114.012 68.949 113.139 68.8065C101.462 66.9019 89.5384 66.9019 77.8582 68.8065ZM134.339 77.7819C134.894 77.9924 135.258 78.5236 135.258 79.1099V85.711C135.258 86.6989 134.26 87.3889 133.321 87.0423C122.124 82.9093 110.397 80.6776 98.6252 80.3407C97.8439 80.318 97.2202 79.6929 97.2202 78.922V72.12C97.2202 71.3232 97.8866 70.6754 98.6942 70.6981C110.798 71.0511 122.856 73.4156 134.339 77.7819Z" fill="black"></path><path d="M76.3907 98.7126C75.8622 98.0065 75.1663 97.608 74.2996 97.5076C75.0546 97.2194 75.6652 96.7206 76.1248 96.0015C76.5877 95.2824 76.8142 94.3917 76.8044 93.3422C76.7945 91.9915 76.394 91.0004 75.6127 90.4174C74.8281 89.8343 73.7185 89.7177 72.2807 90.074C70.288 90.5664 68.3085 91.1267 66.3421 91.7486C66.3421 96.4744 66.3421 101.2 66.3421 105.926C68.3971 105.919 70.4521 105.916 72.5072 105.913C74.0403 105.91 75.2089 105.518 76.0099 104.692C76.8109 103.869 77.2049 102.732 77.195 101.31C77.1852 100.293 76.9193 99.4187 76.3907 98.7126ZM69.162 93.3131C69.9958 93.1155 70.8362 92.9244 71.6733 92.7462C72.4251 92.5843 72.9865 92.6523 73.3509 92.9471C73.7185 93.2418 73.9024 93.7342 73.9089 94.4079C73.9155 95.0816 73.7317 95.629 73.364 96.0371C72.9963 96.4485 72.4547 96.7011 71.739 96.8048C70.8822 96.9311 70.0287 97.0639 69.1751 97.2064C69.1718 95.9076 69.1686 94.6087 69.162 93.3131ZM73.666 102.723C73.2622 103.114 72.6812 103.322 71.9228 103.354C71.0168 103.393 70.1074 103.435 69.2014 103.477C69.1948 102.101 69.1915 100.727 69.185 99.3507C70.0812 99.2405 70.9774 99.1336 71.8736 99.0332C72.6286 98.949 73.2163 99.0786 73.6299 99.4284C74.0435 99.7782 74.2569 100.319 74.2602 101.045C74.2701 101.77 74.0698 102.331 73.666 102.723Z" fill="black"></path><path d="M86.2884 98.6283C87.4308 98.2753 88.3041 97.6242 88.9081 96.6622C89.5121 95.7035 89.8109 94.5245 89.8076 93.1285C89.801 91.4182 89.3546 90.0578 88.4682 89.0732C87.5786 88.0885 86.2917 87.6771 84.6109 87.865C82.7725 88.0723 80.9374 88.3314 79.1122 88.6456C79.1582 94.3982 79.2041 100.151 79.2501 105.903C80.2054 105.903 81.164 105.9 82.1193 105.9C82.1028 103.6 82.0864 101.304 82.07 99.0041C82.4902 98.9814 82.9137 98.9587 83.3339 98.9361C84.473 101.2 85.6089 103.526 86.7415 105.894C87.7985 105.894 88.8589 105.894 89.9159 105.89C88.7111 103.435 87.4998 101.003 86.2884 98.6283ZM84.4172 96.4128C83.6261 96.4614 82.8382 96.5165 82.0503 96.5748C82.0372 94.7771 82.0241 92.9827 82.0109 91.185C82.8021 91.0911 83.5932 91.0069 84.3844 90.9324C85.2314 90.8514 85.8584 91.0425 86.2622 91.5025C86.666 91.9624 86.8728 92.6361 86.876 93.5139C86.8859 95.3602 86.0652 96.3157 84.4172 96.4128Z" fill="black"></path><path d="M91.7412 87.3306C91.7543 93.5171 91.7707 99.707 91.7839 105.894C92.7392 105.894 93.6977 105.894 94.653 105.894C94.6498 99.6843 94.6465 93.475 94.6432 87.2658C93.678 87.2723 92.7096 87.2949 91.7412 87.3306Z" fill="black"></path><path d="M101.714 91.415C102.332 90.9615 103.024 90.7607 103.789 90.8158C104.718 90.8838 105.513 91.2369 106.172 91.8587C106.829 92.4806 107.312 93.2839 107.62 94.2718C108.628 94.3561 109.636 94.4532 110.64 94.5601C110.276 92.5973 109.504 90.968 108.326 89.6789C107.147 88.393 105.657 87.6221 103.848 87.4569C102.45 87.3306 101.222 87.6447 100.162 88.393C99.1012 89.138 98.2805 90.236 97.6962 91.6644C97.1119 93.0961 96.8197 94.7383 96.8197 96.5845C96.8197 98.4146 97.1053 100.05 97.6831 101.495C98.2576 102.94 99.0717 104.06 100.122 104.86C101.173 105.66 102.381 106.055 103.753 106.052C105.545 106.052 107.033 105.466 108.224 104.342C109.413 103.215 110.207 101.715 110.601 99.8138C109.596 99.7555 108.592 99.7037 107.584 99.6584C107.266 100.604 106.773 101.349 106.11 101.893C105.447 102.437 104.656 102.706 103.73 102.69C102.968 102.677 102.282 102.428 101.675 101.932C101.064 101.437 100.592 100.73 100.254 99.8171C99.9154 98.9037 99.748 97.8413 99.7512 96.6331C99.7545 95.4087 99.9285 94.3431 100.273 93.4491C100.615 92.5487 101.097 91.8685 101.714 91.415Z" fill="black"></path><path d="M124.372 91.7519C123.246 91.3956 122.117 91.0587 120.984 90.7445C119.225 92.5325 117.442 94.586 115.653 96.8372C115.673 94.3722 115.693 91.9073 115.709 89.4424C114.757 89.2351 113.805 89.044 112.85 88.8659C112.804 94.5439 112.758 100.225 112.712 105.903C113.667 105.903 114.626 105.906 115.581 105.906C115.601 103.396 115.62 100.883 115.64 98.3725C117.387 101.061 119.133 103.597 120.893 105.916C122.051 105.919 123.214 105.923 124.372 105.926C122.344 103.516 120.341 100.792 118.342 97.851C120.374 95.5156 122.393 93.4491 124.372 91.7519Z" fill="black"></path><path d="M77.1852 109.693C77.3986 109.563 77.6382 109.502 77.9041 109.502C78.2521 109.502 78.541 109.583 78.7774 109.742C79.0104 109.903 79.1811 110.117 79.2796 110.389H79.6801C79.5587 110.004 79.3453 109.703 79.0465 109.482C78.7478 109.262 78.367 109.155 77.9074 109.155C77.5561 109.155 77.2443 109.236 76.9718 109.398C76.696 109.56 76.486 109.787 76.3317 110.078C76.1806 110.37 76.1051 110.704 76.1051 111.076C76.1051 111.445 76.1806 111.779 76.3317 112.067C76.4827 112.359 76.696 112.585 76.9718 112.747C77.2476 112.909 77.5594 112.994 77.9074 112.994C78.367 112.994 78.7445 112.883 79.0465 112.666C79.3453 112.446 79.5587 112.145 79.6801 111.759H79.2796C79.1779 112.032 79.0104 112.245 78.7774 112.407C78.541 112.569 78.2521 112.647 77.9041 112.647C77.6415 112.647 77.4019 112.582 77.1852 112.456C76.9718 112.326 76.8011 112.145 76.6796 111.908C76.5582 111.672 76.4958 111.393 76.4958 111.076C76.4958 110.759 76.5582 110.48 76.6796 110.244C76.8011 110.004 76.9718 109.819 77.1852 109.693Z" fill="black"></path><path d="M85.2281 109.392C84.9458 109.227 84.6273 109.146 84.2761 109.146C83.9248 109.146 83.6031 109.227 83.324 109.392C83.0417 109.557 82.8218 109.784 82.6609 110.075C82.5001 110.367 82.4213 110.697 82.4213 111.07C82.4213 111.439 82.5001 111.772 82.6609 112.067C82.8218 112.362 83.0417 112.589 83.324 112.754C83.6064 112.919 83.9248 113 84.2761 113C84.6273 113 84.949 112.919 85.2281 112.754C85.5104 112.589 85.7304 112.362 85.8912 112.067C86.0521 111.772 86.1309 111.442 86.1309 111.07C86.1309 110.7 86.0488 110.367 85.8912 110.075C85.7304 109.784 85.5071 109.557 85.2281 109.392ZM85.5498 111.905C85.4218 112.145 85.2478 112.326 85.0245 112.456C84.8013 112.585 84.5518 112.647 84.2728 112.647C83.9937 112.647 83.7442 112.582 83.521 112.456C83.2978 112.326 83.1238 112.145 82.9958 111.905C82.8677 111.666 82.8021 111.39 82.8021 111.073C82.8021 110.755 82.8677 110.477 82.9958 110.24C83.1238 110.001 83.2978 109.819 83.521 109.69C83.7442 109.56 83.9937 109.499 84.2728 109.499C84.5518 109.499 84.8013 109.563 85.0245 109.69C85.2478 109.819 85.4218 110.001 85.5498 110.24C85.6778 110.48 85.7435 110.755 85.7435 111.073C85.7402 111.387 85.6778 111.666 85.5498 111.905Z" fill="black"></path><path d="M90.8483 112.491L89.4399 109.269H88.9902V112.958H89.3776V109.881L90.6775 112.958H91.0157L92.3124 109.868V112.958H92.6899V109.269H92.2467L90.8483 112.491Z" fill="black"></path><path d="M96.8295 109.191H95.6871V112.958H96.0712V111.387H96.8295C97.2465 111.387 97.5616 111.293 97.7816 111.102C98.0015 110.911 98.1098 110.642 98.1098 110.292C98.1098 109.949 98.0048 109.68 97.7947 109.486C97.578 109.288 97.2596 109.191 96.8295 109.191ZM97.5058 110.865C97.3614 110.998 97.125 111.066 96.7967 111.066H96.0712V109.505H96.7967C97.125 109.505 97.3614 109.573 97.5058 109.706C97.6502 109.839 97.7225 110.033 97.7225 110.292C97.7225 110.542 97.6502 110.733 97.5058 110.865Z" fill="black"></path><path d="M101.997 109.275L100.588 112.958H100.995L101.343 112.038H103.083L103.425 112.958H103.835L102.427 109.275H101.997ZM101.448 111.74L102.213 109.709L102.965 111.74H101.448Z" fill="black"></path><path d="M109.005 112.349L106.914 109.194H106.53V112.958H106.914V109.81L109.005 112.958H109.39V109.194H109.005V112.349Z" fill="black"></path><path d="M113.519 111.086L112.531 109.191H112.095L113.329 111.487V112.958H113.713V111.487L114.944 109.191H114.504L113.519 111.086Z" fill="black"></path></svg>